<svg width="111" height="16" viewBox="0 0 111 16" fill="none" xmlns="http://www.w3.org/2000/svg">
<path d="M3.66 12.36H8.14V15H0.24V0.96H3.66V12.36ZM14.8513 15.16C13.7579 15.16 12.7713 14.9267 11.8913 14.46C11.0246 13.9933 10.3379 13.3267 9.83125 12.46C9.33792 11.5933 9.09125 10.58 9.09125 9.42C9.09125 8.27333 9.34458 7.26667 9.85125 6.4C10.3579 5.52 11.0513 4.84667 11.9313 4.38C12.8113 3.91333 13.7979 3.68 14.8913 3.68C15.9846 3.68 16.9713 3.91333 17.8513 4.38C18.7313 4.84667 19.4246 5.52 19.9313 6.4C20.4379 7.26667 20.6913 8.27333 20.6913 9.42C20.6913 10.5667 20.4313 11.58 19.9113 12.46C19.4046 13.3267 18.7046 13.9933 17.8113 14.46C16.9313 14.9267 15.9446 15.16 14.8513 15.16ZM14.8513 12.2C15.5046 12.2 16.0579 11.96 16.5113 11.48C16.9779 11 17.2113 10.3133 17.2113 9.42C17.2113 8.52667 16.9846 7.84 16.5313 7.36C16.0913 6.88 15.5446 6.64 14.8913 6.64C14.2246 6.64 13.6713 6.88 13.2313 7.36C12.7913 7.82667 12.5713 8.51333 12.5713 9.42C12.5713 10.3133 12.7846 11 13.2113 11.48C13.6513 11.96 14.1979 12.2 14.8513 12.2ZM21.8256 9.42C21.8256 8.26 22.059 7.24667 22.5256 6.38C23.0056 5.51333 23.6656 4.84667 24.5056 4.38C25.359 3.91333 26.3323 3.68 27.4256 3.68C28.8256 3.68 29.9923 4.04667 30.9256 4.78C31.8723 5.51333 32.4923 6.54667 32.7856 7.88H29.1456C28.839 7.02667 28.2456 6.6 27.3656 6.6C26.739 6.6 26.239 6.84667 25.8656 7.34C25.4923 7.82 25.3056 8.51333 25.3056 9.42C25.3056 10.3267 25.4923 11.0267 25.8656 11.52C26.239 12 26.739 12.24 27.3656 12.24C28.2456 12.24 28.839 11.8133 29.1456 10.96H32.7856C32.4923 12.2667 31.8723 13.2933 30.9256 14.04C29.979 14.7867 28.8123 15.16 27.4256 15.16C26.3323 15.16 25.359 14.9267 24.5056 14.46C23.6656 13.9933 23.0056 13.3267 22.5256 12.46C22.059 11.5933 21.8256 10.58 21.8256 9.42ZM33.935 9.4C33.935 8.25333 34.1483 7.24667 34.575 6.38C35.015 5.51333 35.6083 4.84667 36.355 4.38C37.1017 3.91333 37.935 3.68 38.855 3.68C39.6417 3.68 40.3283 3.84 40.915 4.16C41.515 4.48 41.975 4.9 42.295 5.42V3.84H45.715V15H42.295V13.42C41.9617 13.94 41.495 14.36 40.895 14.68C40.3083 15 39.6217 15.16 38.835 15.16C37.9283 15.16 37.1017 14.9267 36.355 14.46C35.6083 13.98 35.015 13.3067 34.575 12.44C34.1483 11.56 33.935 10.5467 33.935 9.4ZM42.295 9.42C42.295 8.56667 42.055 7.89333 41.575 7.4C41.1083 6.90667 40.535 6.66 39.855 6.66C39.175 6.66 38.595 6.90667 38.115 7.4C37.6483 7.88 37.415 8.54667 37.415 9.4C37.415 10.2533 37.6483 10.9333 38.115 11.44C38.595 11.9333 39.175 12.18 39.855 12.18C40.535 12.18 41.1083 11.9333 41.575 11.44C42.055 10.9467 42.295 10.2733 42.295 9.42ZM51.6092 0.2V15H48.1892V0.2H51.6092Z" fill="#2C9C69"/>
<path d="M53.5077 7.96C53.5077 6.57333 53.8077 5.34 54.4077 4.26C55.0077 3.16667 55.841 2.32 56.9077 1.72C57.9877 1.10667 59.2077 0.799999 60.5677 0.799999C62.2343 0.799999 63.661 1.24 64.8477 2.12C66.0343 3 66.8277 4.2 67.2277 5.72H63.4677C63.1877 5.13333 62.7877 4.68667 62.2677 4.38C61.761 4.07333 61.181 3.92 60.5277 3.92C59.4743 3.92 58.621 4.28667 57.9677 5.02C57.3143 5.75333 56.9877 6.73333 56.9877 7.96C56.9877 9.18667 57.3143 10.1667 57.9677 10.9C58.621 11.6333 59.4743 12 60.5277 12C61.181 12 61.761 11.8467 62.2677 11.54C62.7877 11.2333 63.1877 10.7867 63.4677 10.2H67.2277C66.8277 11.72 66.0343 12.92 64.8477 13.8C63.661 14.6667 62.2343 15.1 60.5677 15.1C59.2077 15.1 57.9877 14.8 56.9077 14.2C55.841 13.5867 55.0077 12.74 54.4077 11.66C53.8077 10.58 53.5077 9.34667 53.5077 7.96ZM74.402 15.16C73.3087 15.16 72.322 14.9267 71.442 14.46C70.5754 13.9933 69.8887 13.3267 69.382 12.46C68.8887 11.5933 68.642 10.58 68.642 9.42C68.642 8.27333 68.8954 7.26667 69.402 6.4C69.9087 5.52 70.602 4.84667 71.482 4.38C72.362 3.91333 73.3487 3.68 74.442 3.68C75.5354 3.68 76.522 3.91333 77.402 4.38C78.282 4.84667 78.9754 5.52 79.482 6.4C79.9887 7.26667 80.242 8.27333 80.242 9.42C80.242 10.5667 79.982 11.58 79.462 12.46C78.9554 13.3267 78.2554 13.9933 77.362 14.46C76.482 14.9267 75.4954 15.16 74.402 15.16ZM74.402 12.2C75.0554 12.2 75.6087 11.96 76.062 11.48C76.5287 11 76.762 10.3133 76.762 9.42C76.762 8.52667 76.5354 7.84 76.082 7.36C75.642 6.88 75.0954 6.64 74.442 6.64C73.7754 6.64 73.222 6.88 72.782 7.36C72.342 7.82667 72.122 8.51333 72.122 9.42C72.122 10.3133 72.3354 11 72.762 11.48C73.202 11.96 73.7487 12.2 74.402 12.2ZM93.0764 3.84V15H89.6564V13.48C89.3097 13.9733 88.8364 14.3733 88.2364 14.68C87.6497 14.9733 86.9964 15.12 86.2764 15.12C85.4231 15.12 84.6697 14.9333 84.0164 14.56C83.3631 14.1733 82.8564 13.62 82.4964 12.9C82.1364 12.18 81.9564 11.3333 81.9564 10.36V3.84H85.3564V9.9C85.3564 10.6467 85.5497 11.2267 85.9364 11.64C86.3231 12.0533 86.8431 12.26 87.4964 12.26C88.1631 12.26 88.6897 12.0533 89.0764 11.64C89.4631 11.2267 89.6564 10.6467 89.6564 9.9V3.84H93.0764ZM98.953 5.7C99.353 5.08667 99.853 4.60667 100.453 4.26C101.053 3.9 101.72 3.72 102.453 3.72V7.34H101.513C100.66 7.34 100.02 7.52667 99.593 7.9C99.1663 8.26 98.953 8.9 98.953 9.82V15H95.533V3.84H98.953V5.7ZM110.308 12.1V15H108.568C107.328 15 106.361 14.7 105.668 14.1C104.974 13.4867 104.628 12.4933 104.628 11.12V6.68H103.268V3.84H104.628V1.12H108.048V3.84H110.288V6.68H108.048V11.16C108.048 11.4933 108.128 11.7333 108.288 11.88C108.448 12.0267 108.714 12.1 109.088 12.1H110.308Z" fill="#003400"/>
</svg>
